# xmcd
#
# Track frame offsets:
#	150
#	10996
#	29763
#	44502
#	60924
#	81614
#	94734
#	110900
#	128186
#	154126
#	170251
#	184825
#	201422
#	222119
#	237554
#
# Disc length: 3479 seconds
# Revision: 0
# Processed by: cddbd v1.5.2PL0 Copyright (c) Steve Scherf et al.
# Submitted via: dBpowerAMP V12.0
#
DISCID=dc0d950f
DTITLE=Various Artist - The Blues Magazine: Young Gifted And Blue
DYEAR=2012
DGENRE=Blues
TTITLE0=The Strypes - You Can't Judge A Book By The Cover
TTITLE1=Crow Black Chicken - White Lightning
TTITLE2=Gruhak - Take Me To Heaven
TTITLE3=Lucy Zirins - Hours To Waste
TTITLE4=Liam Tarpey Band - Krypto Blues
TTITLE5=Ginger St James - Please Mr Driver
TTITLE6=Oli Brown - Solid Ground
TTITLE7=Joanne Shaw Taylor - Almost Always Never
TTITLE8=Jo Harman and Co - Sweet Man Moses
TTITLE9=Krissy Matthews - Feeling For The Blues
TTITLE10=Cherry Lee Mewis - Man Overboard
TTITLE11=Hooson - Hard To Breathe
TTITLE12=Danny Giles - I Won't Let Love
TTITLE13=The Mentulls - I Got The Blues
TTITLE14=Alister Atkin - Beautiful Child
EXTD=
EXTT0=
EXTT1=
EXTT2=
EXTT3=
EXTT4=
EXTT5=
EXTT6=
EXTT7=
EXTT8=
EXTT9=
EXTT10=
EXTT11=
EXTT12=
EXTT13=
EXTT14=
PLAYORDER=
